<svg width="179" height="180" viewBox="0 0 179 180" fill="none" xmlns="http://www.w3.org/2000/svg">
<path d="M61.8058 146.745C50.8499 168.326 30.7625 178.732 11.5129 177.665C10.4018 177.603 9.29994 177.505 8.20833 177.37C6.61098 177.173 5.03682 176.901 3.48824 176.557C0.681047 175.934 -0.752607 172.353 0.676775 169.536L42.8503 86.4074C53.8062 64.8267 73.8937 54.4202 93.1433 55.4879C94.2544 55.5495 95.3562 55.6482 96.4479 55.7829C98.0452 55.9799 99.6193 56.2518 101.168 56.5956C103.975 57.2187 105.409 60.7996 103.979 63.617L61.8058 146.745Z" fill="url(#paint0_linear_1_39)"/>
<path d="M126.593 130.698C148.505 130.698 166.473 145.264 175.285 164.757C175.794 165.882 176.27 167.017 176.713 168.159C177.362 169.831 177.942 171.517 178.454 173.214C179.383 176.291 177.373 179.507 174.513 179.508H90.1233C68.2115 179.508 50.2431 164.941 41.4313 145.449C40.9227 144.323 40.4469 143.189 40.0036 142.047C39.355 140.375 38.7751 138.688 38.2625 136.991C37.3334 133.915 39.3435 130.699 42.2037 130.698H126.593Z" fill="url(#paint1_linear_1_39)"/>
<path d="M137.396 86.4073L95.1802 3.30695C93.7494 0.490614 90.3057 0.11204 88.4276 2.56521C87.3915 3.91861 86.3973 5.33295 85.4487 6.80769C84.8003 7.81541 84.1743 8.85132 83.5718 9.91486C75.8441 23.5555 72.6835 40.7928 76.0051 57.5819C81.6175 55.8765 87.4168 55.1703 93.1433 55.4879C94.2543 55.5495 95.3562 55.6482 96.4479 55.7829C98.0452 55.9799 99.6194 56.2519 101.168 56.5956C103.975 57.2188 105.409 60.7996 103.979 63.6171L90.1166 90.942L124.187 158.008C125.618 160.824 129.061 161.203 130.939 158.75C131.975 157.396 132.97 155.982 133.918 154.507C134.567 153.499 135.193 152.464 135.795 151.4C146.233 132.975 148.352 107.988 137.396 86.4073Z" fill="url(#paint2_linear_1_39)"/>
<defs>
<linearGradient id="paint0_linear_1_39" x1="2.67872" y1="174.256" x2="114.511" y2="73.8028" gradientUnits="userSpaceOnUse">
<stop stop-color="#5F8D4E"/>
<stop offset="1" stop-color="#3EDD24"/>
</linearGradient>
<linearGradient id="paint1_linear_1_39" x1="177.107" y1="175.162" x2="38.244" y2="143.834" gradientUnits="userSpaceOnUse">
<stop stop-color="#5F8D4E"/>
<stop offset="1" stop-color="#3EDD24"/>
</linearGradient>
<linearGradient id="paint2_linear_1_39" x1="90.0466" y1="3.728" x2="139.298" y2="152.479" gradientUnits="userSpaceOnUse">
<stop stop-color="#5F8D4E"/>
<stop offset="1" stop-color="#7BE056"/>
</linearGradient>
</defs>
</svg>
